<svg width="304" height="51" viewBox="0 0 304 51" fill="none" xmlns="http://www.w3.org/2000/svg">
<path d="M23.8125 11.1875C23.8542 11.8125 23.7708 12.75 23.5625 14C23.3958 15.25 23.1042 16.5 22.6875 17.75C22.2708 19 21.7292 20.1042 21.0625 21.0625C20.4375 21.9792 19.7083 22.4375 18.875 22.4375C18.4583 22.4375 18.1042 22.1875 17.8125 21.6875C17.5208 21.1875 17.2708 20.5417 17.0625 19.75C16.8542 18.9583 16.6875 18.0833 16.5625 17.125C16.4375 16.125 16.3125 15.1667 16.1875 14.25C16.1042 13.3333 16.0208 12.5 15.9375 11.75C15.8958 10.9583 15.8542 10.375 15.8125 10C15.6458 9.75 15.3333 9.5 14.875 9.25C14.4583 8.95833 14.0833 8.8125 13.75 8.8125C13.375 8.8125 12.9167 9.16667 12.375 9.875C11.875 10.5833 11.3958 11.4167 10.9375 12.375C10.4792 13.3333 10.1042 14.2917 9.8125 15.25C9.52083 16.1667 9.39583 16.875 9.4375 17.375C9.4375 17.7083 9.75 18.2917 10.375 19.125C11.0417 19.9583 11.8542 20.9375 12.8125 22.0625C13.7708 23.1875 14.8125 24.4167 15.9375 25.75C17.0625 27.0417 18.1042 28.3333 19.0625 29.625C20.0208 30.9167 20.8333 32.1458 21.5 33.3125C22.1667 34.4792 22.5208 35.4792 22.5625 36.3125C22.6458 37.3125 22.4167 38.6042 21.875 40.1875C21.375 41.7292 20.7292 43.2292 19.9375 44.6875C19.1458 46.1458 18.2917 47.4167 17.375 48.5C16.5 49.5417 15.7083 50.0833 15 50.125C14.5417 50.1667 13.9375 49.9583 13.1875 49.5C12.4375 49.0833 11.625 48.5208 10.75 47.8125C9.875 47.1042 8.97917 46.3333 8.0625 45.5C7.1875 44.625 6.35417 43.7708 5.5625 42.9375C4.8125 42.1042 4.16667 41.3542 3.625 40.6875C3.125 39.9792 2.83333 39.4583 2.75 39.125C2.58333 38.625 2.47917 37.9583 2.4375 37.125C2.4375 36.25 2.47917 35.4167 2.5625 34.625C2.6875 33.7917 2.83333 33.0833 3 32.5C3.20833 31.875 3.45833 31.5625 3.75 31.5625C3.95833 31.5625 4.29167 31.8333 4.75 32.375C5.25 32.9167 5.8125 33.6042 6.4375 34.4375C7.0625 35.2708 7.72917 36.1875 8.4375 37.1875C9.1875 38.1458 9.89583 39.0417 10.5625 39.875C11.2292 40.7083 11.8333 41.4167 12.375 42C12.9167 42.5417 13.3542 42.7917 13.6875 42.75C13.9375 42.75 14.2083 42.5625 14.5 42.1875C14.7917 41.7708 15.0625 41.2917 15.3125 40.75C15.5625 40.1667 15.7708 39.5833 15.9375 39C16.1042 38.4167 16.1875 37.9583 16.1875 37.625C16.1458 37.125 15.7292 36.4167 14.9375 35.5C14.1875 34.5417 13.2292 33.4792 12.0625 32.3125C10.9375 31.1042 9.70833 29.8542 8.375 28.5625C7.08333 27.2708 5.85417 26.0417 4.6875 24.875C3.5625 23.6667 2.60417 22.5833 1.8125 21.625C1.0625 20.6667 0.666667 19.9375 0.625 19.4375C0.583333 18.9375 0.729167 18.1667 1.0625 17.125C1.39583 16.0417 1.83333 14.8333 2.375 13.5C2.95833 12.1667 3.60417 10.8125 4.3125 9.4375C5.02083 8.0625 5.75 6.79167 6.5 5.625C7.25 4.45833 7.97917 3.52083 8.6875 2.8125C9.39583 2.0625 10.0208 1.6875 10.5625 1.6875C11.2708 1.6875 12.0833 1.85417 13 2.1875C13.9167 2.47917 14.8542 2.89583 15.8125 3.4375C16.8125 3.9375 17.7708 4.52083 18.6875 5.1875C19.6458 5.85417 20.5 6.54167 21.25 7.25C22 7.91667 22.6042 8.60417 23.0625 9.3125C23.5208 9.97917 23.7708 10.6042 23.8125 11.1875ZM42.9375 16.125C43.1875 16.4167 43.4167 16.7292 43.625 17.0625C43.8333 17.3542 44.0208 17.7708 44.1875 18.3125C44.3542 18.8125 44.4792 19.4792 44.5625 20.3125C44.6875 21.1458 44.75 22.2292 44.75 23.5625C44.75 25.6875 44.6875 27.8333 44.5625 30C44.4792 32.125 44.3958 34 44.3125 35.625C44.2708 37.0833 44.2292 38.4375 44.1875 39.6875C44.1458 40.9375 44.1042 42.0417 44.0625 43C44.0208 43.9167 43.9583 44.6458 43.875 45.1875C43.8333 45.7292 43.7917 46.0208 43.75 46.0625C43.5833 46.1875 43.3125 46.1458 42.9375 45.9375C42.6042 45.6875 42.2292 45.375 41.8125 45C41.4375 44.625 41.0833 44.2292 40.75 43.8125C40.4167 43.3958 40.2083 43.0625 40.125 42.8125C40.125 42.6042 40.0625 42 39.9375 41C38.9375 41.5833 37.8333 42 36.625 42.25C35.4167 42.4583 34.2083 42.5417 33 42.5C31.8333 42.4167 30.75 42.1875 29.75 41.8125C28.75 41.4375 28 40.9375 27.5 40.3125C27.2917 40.0625 27.1042 39.6875 26.9375 39.1875C26.8125 38.6875 26.6875 38.125 26.5625 37.5C26.4792 36.8333 26.3958 36.1458 26.3125 35.4375C26.2292 34.6875 26.1667 34 26.125 33.375C26.0417 31.75 26.25 30.3542 26.75 29.1875C27.25 27.9792 28.1667 27.0833 29.5 26.5C30.0833 26.25 30.8542 26.125 31.8125 26.125C32.8125 26.0833 33.7917 26.125 34.75 26.25C35.75 26.3333 36.6458 26.4583 37.4375 26.625C38.2292 26.75 38.7292 26.8542 38.9375 26.9375C38.7708 24.8125 38.6458 22.9792 38.5625 21.4375C38.4792 19.8542 38.3125 18.8333 38.0625 18.375C37.8542 18.0833 37.6042 17.7917 37.3125 17.5C37.0625 17.2917 36.7292 17.0625 36.3125 16.8125C35.8958 16.5625 35.3958 16.375 34.8125 16.25C34.3542 16.1667 33.9375 16.3542 33.5625 16.8125C33.2292 17.2292 32.9167 17.9792 32.625 19.0625C32.375 20.1042 32.2292 21.7083 32.1875 23.875C30.7292 23.9167 29.6042 23.9167 28.8125 23.875C28.0625 23.7917 27.5 23.7083 27.125 23.625C26.6667 23.5417 26.3958 23.4375 26.3125 23.3125C26.2292 23.1458 26.2708 22.5417 26.4375 21.5C26.6042 20.4167 26.8333 19.25 27.125 18C27.4583 16.75 27.8333 15.5625 28.25 14.4375C28.7083 13.3125 29.1875 12.6042 29.6875 12.3125C30.6875 11.7292 31.875 11.5208 33.25 11.6875C34.6667 11.8542 36.0417 12.2083 37.375 12.75C38.7083 13.2917 39.8958 13.8958 40.9375 14.5625C41.9792 15.2292 42.6458 15.75 42.9375 16.125ZM39.0625 34.375C39.0625 34.1667 39.0833 33.8958 39.125 33.5625C39.1667 33.1875 39.1875 32.8125 39.1875 32.4375C39.1875 32.0625 39.1667 31.7083 39.125 31.375C39.125 31.0417 39.0833 30.7917 39 30.625C38.875 30.375 38.5 30.1667 37.875 30C37.2917 29.8333 36.625 29.7292 35.875 29.6875C35.125 29.6042 34.4167 29.5833 33.75 29.625C33.0833 29.625 32.625 29.7083 32.375 29.875C32.0417 30.0833 31.7917 30.375 31.625 30.75C31.5 31.125 31.4167 31.7083 31.375 32.5C31.375 32.875 31.3958 33.2708 31.4375 33.6875C31.4792 34.1042 31.5208 34.5208 31.5625 34.9375C31.6458 35.3125 31.7292 35.6458 31.8125 35.9375C31.9375 36.2292 32.0625 36.4167 32.1875 36.5C32.4792 36.7083 32.9792 36.8958 33.6875 37.0625C34.4375 37.1875 35.1875 37.2292 35.9375 37.1875C36.6875 37.1042 37.375 36.8542 38 36.4375C38.625 36.0208 38.9792 35.3333 39.0625 34.375ZM63.8125 15.9375C64.2292 16.1875 64.6458 16.6458 65.0625 17.3125C65.5208 17.9375 65.9167 18.6875 66.25 19.5625C66.625 20.4375 66.9167 21.375 67.125 22.375C67.3333 23.3333 67.4375 24.25 67.4375 25.125C67.4375 25.75 67.3542 26.625 67.1875 27.75C67.0625 28.8333 66.875 30.0417 66.625 31.375C66.375 32.6667 66.1042 34.0208 65.8125 35.4375C65.5208 36.8125 65.2292 38.0833 64.9375 39.25C64.6875 40.4167 64.4583 41.4167 64.25 42.25C64.0417 43.0417 63.8958 43.5208 63.8125 43.6875C63.6042 44.1875 63.4167 44.625 63.25 45C63.125 45.3333 62.9583 45.5833 62.75 45.75C62.2917 46.0833 61.7083 46.3333 61 46.5C60.2917 46.625 59.5625 46.7083 58.8125 46.75C58.0625 46.7917 57.3333 46.7917 56.625 46.75C55.9583 46.6667 55.4375 46.5625 55.0625 46.4375C54.8958 46.3958 54.7083 46.3542 54.5 46.3125C54.3333 46.2292 54.1458 46.1458 53.9375 46.0625C53.5208 46.7708 53.0417 47.4167 52.5 48C51.9583 48.5417 51.4583 48.7708 51 48.6875C50.8333 48.6458 50.6458 47.9583 50.4375 46.625C50.2708 45.2917 50.0833 43.5417 49.875 41.375C49.6667 39.1667 49.4583 36.6667 49.25 33.875C49.0417 31.0833 48.8542 28.2292 48.6875 25.3125C48.5208 22.3542 48.375 19.4583 48.25 16.625C48.125 13.7917 48.0208 11.2708 47.9375 9.0625C47.8958 6.8125 47.8958 4.97917 47.9375 3.5625C47.9792 2.10417 48.0833 1.3125 48.25 1.1875C48.4167 1.0625 48.7917 1.16667 49.375 1.5C50 1.79167 50.6667 2.25 51.375 2.875C52.0833 3.45833 52.7292 4.16667 53.3125 5C53.9375 5.83333 54.3542 6.6875 54.5625 7.5625C54.6875 8.22917 54.7708 9.375 54.8125 11C54.8958 12.625 54.9375 14.5417 54.9375 16.75C56.7708 16.0417 58.4583 15.5833 60 15.375C61.5833 15.1667 62.8542 15.3542 63.8125 15.9375ZM61.125 25.125C61.125 24.4583 61.0208 23.8125 60.8125 23.1875C60.6042 22.5208 60.3542 21.9583 60.0625 21.5C59.7708 21 59.4583 20.625 59.125 20.375C58.7917 20.125 58.5 20.0417 58.25 20.125C57.7917 20.2083 57.3542 20.3333 56.9375 20.5C56.5208 20.625 56.1667 20.75 55.875 20.875C55.5 21.0417 55.1875 21.1875 54.9375 21.3125C54.8958 23.7708 54.8333 26.2708 54.75 28.8125C54.7083 31.3542 54.6875 33.7292 54.6875 35.9375C54.6875 37.0208 54.7083 37.9792 54.75 38.8125C54.7917 39.6042 54.8125 40.1042 54.8125 40.3125C54.9375 41.3125 55.2083 42.0208 55.625 42.4375C55.75 42.5208 55.9375 42.6458 56.1875 42.8125C56.4792 42.9375 56.7708 43.0625 57.0625 43.1875C57.3958 43.2708 57.7083 43.3333 58 43.375C58.2917 43.375 58.5417 43.2917 58.75 43.125C58.7917 43.0833 58.875 42.625 59 41.75C59.1667 40.8333 59.3333 39.7292 59.5 38.4375C59.6667 37.1458 59.8333 35.75 60 34.25C60.2083 32.7083 60.3958 31.2917 60.5625 30C60.7292 28.6667 60.8542 27.5417 60.9375 26.625C61.0625 25.7083 61.125 25.2083 61.125 25.125ZM83.9375 14.8125C84.2292 15.0625 84.5 15.5417 84.75 16.25C85.0417 16.9583 85.2917 17.8125 85.5 18.8125C85.7083 19.8125 85.8958 20.8958 86.0625 22.0625C86.2292 23.2292 86.375 24.375 86.5 25.5C86.625 26.625 86.7083 27.6875 86.75 28.6875C86.8333 29.6458 86.8958 30.4375 86.9375 31.0625C86.9792 31.8125 87 32.6042 87 33.4375C87.0417 34.2292 87.0417 35 87 35.75C87 36.4583 86.9583 37.1042 86.875 37.6875C86.8333 38.2708 86.75 38.7083 86.625 39C86.375 39.625 85.9375 40.0625 85.3125 40.3125C84.7292 40.5208 84.0625 40.6667 83.3125 40.75C82.9375 40.7917 82.2917 40.8125 81.375 40.8125C80.5 40.7708 79.5417 40.7292 78.5 40.6875C77.5 40.6042 76.5417 40.5208 75.625 40.4375C74.7083 40.3542 74.0208 40.2708 73.5625 40.1875C72.6458 39.9792 71.9792 39.7083 71.5625 39.375C71.1875 39.0417 70.8125 38.5625 70.4375 37.9375C70.3125 37.6875 70.2083 37.0625 70.125 36.0625C70.0417 35.0208 69.9792 33.7917 69.9375 32.375C69.9375 30.9167 69.9583 29.3542 70 27.6875C70.0417 26.0208 70.1042 24.4375 70.1875 22.9375C70.3125 21.4375 70.4375 20.125 70.5625 19C70.7292 17.875 70.9375 17.125 71.1875 16.75C71.6042 16.1667 72.3125 15.625 73.3125 15.125C74.3542 14.625 75.2917 14.2292 76.125 13.9375C76.5417 13.8125 77.0833 13.7292 77.75 13.6875C78.4583 13.6042 79.1875 13.6042 79.9375 13.6875C80.7292 13.7292 81.4792 13.8542 82.1875 14.0625C82.8958 14.2292 83.4792 14.4792 83.9375 14.8125ZM80.4375 34.1875C80.5208 34.0208 80.6042 33.5208 80.6875 32.6875C80.8125 31.8125 80.8958 30.7708 80.9375 29.5625C81.0208 28.3542 81.0625 27.0625 81.0625 25.6875C81.1042 24.3125 81.125 23.0417 81.125 21.875C81.125 20.7083 81.0833 19.7292 81 18.9375C80.9167 18.1042 80.8125 17.625 80.6875 17.5C80.4792 17.3333 80.1667 17.2708 79.75 17.3125C79.375 17.3125 78.9792 17.375 78.5625 17.5C78.1458 17.5833 77.7708 17.7083 77.4375 17.875C77.1042 18 76.875 18.125 76.75 18.25C76.2083 18.7083 75.9167 19.4583 75.875 20.5C75.875 20.7917 75.8333 21.625 75.75 23C75.7083 24.3333 75.6875 25.7917 75.6875 27.375C75.6875 28.9167 75.7083 30.3542 75.75 31.6875C75.8333 33.0208 75.9792 33.8333 76.1875 34.125C76.3958 34.4167 76.6875 34.6458 77.0625 34.8125C77.4792 34.9375 77.8958 35 78.3125 35C78.7708 35 79.1875 34.9375 79.5625 34.8125C79.9792 34.6458 80.2708 34.4375 80.4375 34.1875ZM104.875 20.5625C105.292 20.8125 105.688 21.2708 106.062 21.9375C106.479 22.6042 106.854 23.375 107.188 24.25C107.521 25.0833 107.792 26 108 27C108.208 27.9583 108.312 28.875 108.312 29.75C108.312 30.3333 108.229 31.2083 108.062 32.375C107.896 33.5 107.688 34.75 107.438 36.125C107.188 37.4583 106.917 38.8333 106.625 40.25C106.333 41.6667 106.062 42.9583 105.812 44.125C105.562 45.2917 105.333 46.2708 105.125 47.0625C104.917 47.8542 104.792 48.2917 104.75 48.375C104.667 48.5 104.417 48.5833 104 48.625C103.625 48.6667 103.208 48.6458 102.75 48.5625C102.333 48.4792 101.938 48.3542 101.562 48.1875C101.188 48.0208 100.958 47.8125 100.875 47.5625C100.833 47.3958 100.812 46.875 100.812 46C100.854 45.0833 100.896 44 100.938 42.75C101.021 41.5 101.104 40.1458 101.188 38.6875C101.312 37.2292 101.417 35.875 101.5 34.625C101.583 33.3333 101.646 32.2292 101.688 31.3125C101.771 30.3958 101.812 29.8542 101.812 29.6875C101.854 29.0208 101.792 28.375 101.625 27.75C101.5 27.0833 101.312 26.5208 101.062 26.0625C100.854 25.6042 100.604 25.25 100.312 25C100.062 24.75 99.8125 24.6667 99.5625 24.75C99.1875 24.8333 98.8125 24.9375 98.4375 25.0625C98.1042 25.1875 97.8125 25.2917 97.5625 25.375C97.2292 25.5 96.9375 25.625 96.6875 25.75C96.6458 28.8333 96.5833 31.8542 96.5 34.8125C96.4167 37.7708 96.3125 40.4375 96.1875 42.8125C96.0625 45.1458 95.9167 47.0417 95.75 48.5C95.625 49.9167 95.4792 50.6458 95.3125 50.6875C94.9792 50.7292 94.6042 50.5833 94.1875 50.25C93.8125 49.9167 93.4375 49.5 93.0625 49C92.6875 48.5417 92.3542 48.0417 92.0625 47.5C91.8125 46.9583 91.6458 46.5 91.5625 46.125C91.2292 42.0417 90.9583 38.3958 90.75 35.1875C90.5417 31.9375 90.375 29.0625 90.25 26.5625C90.125 24.0625 90.0208 21.8958 89.9375 20.0625C89.8958 18.2292 89.875 16.6667 89.875 15.375C89.8333 12.3333 89.875 10.2292 90 9.0625C90.1667 8.1875 90.5417 7.35417 91.125 6.5625C91.7083 5.72917 92.3333 5 93 4.375C93.7083 3.75 94.3542 3.29167 94.9375 3C95.5625 2.66667 95.9792 2.58333 96.1875 2.75C96.3125 2.875 96.4167 3.45833 96.5 4.5C96.625 5.5 96.7083 6.85417 96.75 8.5625C96.7917 10.2292 96.8125 12.1667 96.8125 14.375C96.8125 16.5417 96.7917 18.8333 96.75 21.25C98.4167 20.5833 99.9583 20.1667 101.375 20C102.833 19.8333 104 20.0208 104.875 20.5625ZM128 16.125C128.25 16.4167 128.479 16.7292 128.688 17.0625C128.896 17.3542 129.083 17.7708 129.25 18.3125C129.417 18.8125 129.542 19.4792 129.625 20.3125C129.75 21.1458 129.812 22.2292 129.812 23.5625C129.812 25.6875 129.75 27.8333 129.625 30C129.542 32.125 129.458 34 129.375 35.625C129.333 37.0833 129.292 38.4375 129.25 39.6875C129.208 40.9375 129.167 42.0417 129.125 43C129.083 43.9167 129.021 44.6458 128.938 45.1875C128.896 45.7292 128.854 46.0208 128.812 46.0625C128.646 46.1875 128.375 46.1458 128 45.9375C127.667 45.6875 127.292 45.375 126.875 45C126.5 44.625 126.146 44.2292 125.812 43.8125C125.479 43.3958 125.271 43.0625 125.188 42.8125C125.188 42.6042 125.125 42 125 41C124 41.5833 122.896 42 121.688 42.25C120.479 42.4583 119.271 42.5417 118.062 42.5C116.896 42.4167 115.812 42.1875 114.812 41.8125C113.812 41.4375 113.062 40.9375 112.562 40.3125C112.354 40.0625 112.167 39.6875 112 39.1875C111.875 38.6875 111.75 38.125 111.625 37.5C111.542 36.8333 111.458 36.1458 111.375 35.4375C111.292 34.6875 111.229 34 111.188 33.375C111.104 31.75 111.312 30.3542 111.812 29.1875C112.312 27.9792 113.229 27.0833 114.562 26.5C115.146 26.25 115.917 26.125 116.875 26.125C117.875 26.0833 118.854 26.125 119.812 26.25C120.812 26.3333 121.708 26.4583 122.5 26.625C123.292 26.75 123.792 26.8542 124 26.9375C123.833 24.8125 123.708 22.9792 123.625 21.4375C123.542 19.8542 123.375 18.8333 123.125 18.375C122.917 18.0833 122.667 17.7917 122.375 17.5C122.125 17.2917 121.792 17.0625 121.375 16.8125C120.958 16.5625 120.458 16.375 119.875 16.25C119.417 16.1667 119 16.3542 118.625 16.8125C118.292 17.2292 117.979 17.9792 117.688 19.0625C117.438 20.1042 117.292 21.7083 117.25 23.875C115.792 23.9167 114.667 23.9167 113.875 23.875C113.125 23.7917 112.562 23.7083 112.188 23.625C111.729 23.5417 111.458 23.4375 111.375 23.3125C111.292 23.1458 111.333 22.5417 111.5 21.5C111.667 20.4167 111.896 19.25 112.188 18C112.521 16.75 112.896 15.5625 113.312 14.4375C113.771 13.3125 114.25 12.6042 114.75 12.3125C115.75 11.7292 116.938 11.5208 118.312 11.6875C119.729 11.8542 121.104 12.2083 122.438 12.75C123.771 13.2917 124.958 13.8958 126 14.5625C127.042 15.2292 127.708 15.75 128 16.125ZM124.125 34.375C124.125 34.1667 124.146 33.8958 124.188 33.5625C124.229 33.1875 124.25 32.8125 124.25 32.4375C124.25 32.0625 124.229 31.7083 124.188 31.375C124.188 31.0417 124.146 30.7917 124.062 30.625C123.938 30.375 123.562 30.1667 122.938 30C122.354 29.8333 121.688 29.7292 120.938 29.6875C120.188 29.6042 119.479 29.5833 118.812 29.625C118.146 29.625 117.688 29.7083 117.438 29.875C117.104 30.0833 116.854 30.375 116.688 30.75C116.562 31.125 116.479 31.7083 116.438 32.5C116.438 32.875 116.458 33.2708 116.5 33.6875C116.542 34.1042 116.583 34.5208 116.625 34.9375C116.708 35.3125 116.792 35.6458 116.875 35.9375C117 36.2292 117.125 36.4167 117.25 36.5C117.542 36.7083 118.042 36.8958 118.75 37.0625C119.5 37.1875 120.25 37.2292 121 37.1875C121.75 37.1042 122.438 36.8542 123.062 36.4375C123.688 36.0208 124.042 35.3333 124.125 34.375ZM147.125 16.875C147.167 17 147.167 17.3542 147.125 17.9375C147.083 18.4792 147 19.1042 146.875 19.8125C146.792 20.4792 146.688 21.1042 146.562 21.6875C146.438 22.2292 146.333 22.5625 146.25 22.6875C145.833 22.7292 145.417 22.75 145 22.75C144.583 22.7083 144.188 22.6875 143.812 22.6875H142.5C142.458 25.4375 142.396 28.1667 142.312 30.875C142.229 33.5833 142.125 36.0208 142 38.1875C141.875 40.3125 141.729 42.0417 141.562 43.375C141.438 44.7083 141.312 45.3958 141.188 45.4375C140.896 45.4792 140.562 45.3542 140.188 45.0625C139.812 44.7708 139.438 44.4167 139.062 44C138.729 43.5417 138.417 43.0833 138.125 42.625C137.875 42.125 137.729 41.6875 137.688 41.3125C137.479 38.7708 137.292 36.3542 137.125 34.0625C136.958 31.7292 136.833 29.6667 136.75 27.875C136.583 25.7917 136.479 23.8542 136.438 22.0625C135.979 22.0208 135.521 21.9583 135.062 21.875C134.646 21.7917 134.208 21.7083 133.75 21.625C133.333 21.5417 132.896 21.4583 132.438 21.375C132.354 21.2917 132.25 21.1042 132.125 20.8125C132 20.4792 131.875 20.125 131.75 19.75C131.667 19.375 131.583 19.0208 131.5 18.6875C131.417 18.3125 131.375 18.0417 131.375 17.875C131.375 17.75 131.833 17.625 132.75 17.5C133.708 17.375 134.875 17.2708 136.25 17.1875C136.167 14.9792 136.104 13.0625 136.062 11.4375C136.062 9.77083 136.125 8.64583 136.25 8.0625C136.375 7.27083 136.708 6.52083 137.25 5.8125C137.833 5.0625 138.438 4.41667 139.062 3.875C139.729 3.33333 140.333 2.9375 140.875 2.6875C141.458 2.39583 141.833 2.3125 142 2.4375C142.125 2.52083 142.229 2.95833 142.312 3.75C142.396 4.5 142.458 5.52083 142.5 6.8125C142.542 8.10417 142.562 9.625 142.562 11.375C142.562 13.0833 142.562 14.8958 142.562 16.8125C143.812 16.7292 144.875 16.7083 145.75 16.75C146.625 16.75 147.083 16.7917 147.125 16.875Z" fill="#FF0080"/>
<path d="M164.625 7.375C164.833 7.83333 165.021 8.39583 165.188 9.0625C165.354 9.72917 165.458 10.3958 165.5 11.0625C165.583 11.6875 165.604 12.2292 165.562 12.6875C165.521 13.1458 165.375 13.3958 165.125 13.4375C164.875 13.4375 164.354 13.1875 163.562 12.6875C162.771 12.1458 161.917 11.625 161 11.125C160.083 10.5833 159.229 10.1667 158.438 9.875C157.646 9.54167 157.167 9.60417 157 10.0625C156.875 10.3958 156.792 10.9583 156.75 11.75C156.708 12.5417 156.667 13.5208 156.625 14.6875C156.625 15.8125 156.625 17.1042 156.625 18.5625C156.667 19.9792 156.708 21.4792 156.75 23.0625C158 22.9375 159.104 22.8542 160.062 22.8125C161.062 22.7708 161.708 22.7917 162 22.875C162.375 23 162.667 23.3333 162.875 23.875C163.125 24.375 163.271 24.9375 163.312 25.5625C163.396 26.1875 163.375 26.7708 163.25 27.3125C163.167 27.8542 162.979 28.2083 162.688 28.375C162.479 28.5 161.812 28.5833 160.688 28.625C159.604 28.6667 158.354 28.6667 156.938 28.625C157.021 30.75 157.104 32.8542 157.188 34.9375C157.312 36.9792 157.417 38.8542 157.5 40.5625C157.583 42.2708 157.646 43.75 157.688 45C157.771 46.2083 157.812 47.0625 157.812 47.5625C157.812 48.1875 157.625 48.4792 157.25 48.4375C156.917 48.3542 156.5 48.0833 156 47.625C155.5 47.125 154.958 46.5 154.375 45.75C153.833 45 153.375 44.25 153 43.5C152.792 43.125 152.604 42.4583 152.438 41.5C152.271 40.5417 152.104 39.3958 151.938 38.0625C151.771 36.6875 151.604 35.1667 151.438 33.5C151.271 31.8333 151.125 30.1042 151 28.3125C150.167 28.2292 149.438 28.1458 148.812 28.0625C148.229 27.9792 147.875 27.8958 147.75 27.8125C147.542 27.6458 147.396 27.4375 147.312 27.1875C147.271 26.8958 147.229 26.6042 147.188 26.3125C147.188 26.0208 147.188 25.75 147.188 25.5C147.229 25.2083 147.271 24.9792 147.312 24.8125C147.396 24.6875 147.729 24.5417 148.312 24.375C148.938 24.2083 149.729 24.0417 150.688 23.875C150.562 22.2917 150.458 20.75 150.375 19.25C150.333 17.75 150.292 16.375 150.25 15.125C150.208 13.8333 150.167 12.7292 150.125 11.8125C150.125 10.8542 150.146 10.125 150.188 9.625C150.188 9.25 150.417 8.72917 150.875 8.0625C151.375 7.35417 151.938 6.64583 152.562 5.9375C153.229 5.22917 153.896 4.58333 154.562 4C155.271 3.41667 155.833 3.02083 156.25 2.8125C157.208 2.35417 158.146 2.25 159.062 2.5C159.979 2.75 160.812 3.1875 161.562 3.8125C162.312 4.39583 162.958 5.04167 163.5 5.75C164.042 6.41667 164.417 6.95833 164.625 7.375ZM179.938 14.9375C180.271 15.1458 180.583 15.5625 180.875 16.1875C181.208 16.7708 181.5 17.4583 181.75 18.25C182.042 19 182.271 19.8125 182.438 20.6875C182.646 21.5625 182.812 22.375 182.938 23.125C183.104 23.875 183.208 24.5208 183.25 25.0625C183.292 25.5625 183.292 25.875 183.25 26C183.167 26.1667 182.917 26.3333 182.5 26.5C182.125 26.6667 181.562 26.8542 180.812 27.0625C180.062 27.2708 179.021 27.5 177.688 27.75C177.604 25.4583 177.438 23.7292 177.188 22.5625C176.938 21.3542 176.667 20.5 176.375 20C176.042 19.4167 175.688 19.125 175.312 19.125C174.938 19.2917 174.604 19.5 174.312 19.75C174.021 19.9583 173.771 20.1875 173.562 20.4375C173.312 20.7292 173.083 21.0417 172.875 21.375C172.792 21.5 172.708 21.7917 172.625 22.25C172.542 22.7083 172.458 23.3958 172.375 24.3125C172.375 24.6042 172.354 25.2083 172.312 26.125C172.312 27.0417 172.292 28.1042 172.25 29.3125C172.25 30.5208 172.229 31.7917 172.188 33.125C172.188 34.4583 172.167 35.7083 172.125 36.875C172.125 38 172.104 38.9583 172.062 39.75C172.062 40.5417 172.042 41 172 41.125C171.917 41.3333 171.708 41.625 171.375 42C171.042 42.375 170.667 42.7292 170.25 43.0625C169.833 43.3542 169.438 43.6042 169.062 43.8125C168.688 43.9792 168.438 43.9583 168.312 43.75C168.188 43.625 168.062 43.0833 167.938 42.125C167.812 41.1667 167.667 40 167.5 38.625C167.375 37.2083 167.229 35.6667 167.062 34C166.896 32.3333 166.75 30.7292 166.625 29.1875C166.5 27.6458 166.396 26.2708 166.312 25.0625C166.229 23.8125 166.167 22.9167 166.125 22.375C166.083 21.5833 166.042 20.7083 166 19.75C165.958 18.7917 165.917 17.8958 165.875 17.0625C165.875 16.1875 165.875 15.4375 165.875 14.8125C165.917 14.1458 166 13.75 166.125 13.625C166.208 13.5 166.479 13.4792 166.938 13.5625C167.438 13.6042 167.958 13.7292 168.5 13.9375C169.083 14.1042 169.625 14.3333 170.125 14.625C170.625 14.9167 170.958 15.1875 171.125 15.4375C171.25 15.6458 171.375 15.9583 171.5 16.375C172.292 15.9583 173.042 15.5833 173.75 15.25C174.5 14.875 175.208 14.6042 175.875 14.4375C176.583 14.2708 177.271 14.2292 177.938 14.3125C178.604 14.3542 179.271 14.5625 179.938 14.9375ZM198.875 14.8125C199.167 15.0625 199.438 15.5417 199.688 16.25C199.979 16.9583 200.229 17.8125 200.438 18.8125C200.646 19.8125 200.833 20.8958 201 22.0625C201.167 23.2292 201.312 24.375 201.438 25.5C201.562 26.625 201.646 27.6875 201.688 28.6875C201.771 29.6458 201.833 30.4375 201.875 31.0625C201.917 31.8125 201.938 32.6042 201.938 33.4375C201.979 34.2292 201.979 35 201.938 35.75C201.938 36.4583 201.896 37.1042 201.812 37.6875C201.771 38.2708 201.688 38.7083 201.562 39C201.312 39.625 200.875 40.0625 200.25 40.3125C199.667 40.5208 199 40.6667 198.25 40.75C197.875 40.7917 197.229 40.8125 196.312 40.8125C195.438 40.7708 194.479 40.7292 193.438 40.6875C192.438 40.6042 191.479 40.5208 190.562 40.4375C189.646 40.3542 188.958 40.2708 188.5 40.1875C187.583 39.9792 186.917 39.7083 186.5 39.375C186.125 39.0417 185.75 38.5625 185.375 37.9375C185.25 37.6875 185.146 37.0625 185.062 36.0625C184.979 35.0208 184.917 33.7917 184.875 32.375C184.875 30.9167 184.896 29.3542 184.938 27.6875C184.979 26.0208 185.042 24.4375 185.125 22.9375C185.25 21.4375 185.375 20.125 185.5 19C185.667 17.875 185.875 17.125 186.125 16.75C186.542 16.1667 187.25 15.625 188.25 15.125C189.292 14.625 190.229 14.2292 191.062 13.9375C191.479 13.8125 192.021 13.7292 192.688 13.6875C193.396 13.6042 194.125 13.6042 194.875 13.6875C195.667 13.7292 196.417 13.8542 197.125 14.0625C197.833 14.2292 198.417 14.4792 198.875 14.8125ZM195.375 34.1875C195.458 34.0208 195.542 33.5208 195.625 32.6875C195.75 31.8125 195.833 30.7708 195.875 29.5625C195.958 28.3542 196 27.0625 196 25.6875C196.042 24.3125 196.062 23.0417 196.062 21.875C196.062 20.7083 196.021 19.7292 195.938 18.9375C195.854 18.1042 195.75 17.625 195.625 17.5C195.417 17.3333 195.104 17.2708 194.688 17.3125C194.312 17.3125 193.917 17.375 193.5 17.5C193.083 17.5833 192.708 17.7083 192.375 17.875C192.042 18 191.812 18.125 191.688 18.25C191.146 18.7083 190.854 19.4583 190.812 20.5C190.812 20.7917 190.771 21.625 190.688 23C190.646 24.3333 190.625 25.7917 190.625 27.375C190.625 28.9167 190.646 30.3542 190.688 31.6875C190.771 33.0208 190.917 33.8333 191.125 34.125C191.333 34.4167 191.625 34.6458 192 34.8125C192.417 34.9375 192.833 35 193.25 35C193.708 35 194.125 34.9375 194.5 34.8125C194.917 34.6458 195.208 34.4375 195.375 34.1875ZM223.062 22.8125C223.062 23.4792 222.979 24.4375 222.812 25.6875C222.688 26.9375 222.5 28.3125 222.25 29.8125C222 31.2708 221.729 32.7917 221.438 34.375C221.188 35.9167 220.917 37.3333 220.625 38.625C220.375 39.9167 220.146 41 219.938 41.875C219.771 42.75 219.667 43.2292 219.625 43.3125C219.542 43.4375 219.312 43.5208 218.938 43.5625C218.604 43.5625 218.208 43.5208 217.75 43.4375C217.333 43.3542 216.938 43.2292 216.562 43.0625C216.229 42.8958 216.021 42.6875 215.938 42.4375C215.896 42.2708 215.875 41.6875 215.875 40.6875C215.917 39.6875 215.958 38.5 216 37.125C216.083 35.7083 216.167 34.2083 216.25 32.625C216.333 31 216.417 29.5 216.5 28.125C216.625 26.7083 216.708 25.5 216.75 24.5C216.833 23.5 216.875 22.8958 216.875 22.6875C216.875 21.9375 216.792 21.2292 216.625 20.5625C216.5 19.8542 216.333 19.25 216.125 18.75C215.917 18.25 215.667 17.875 215.375 17.625C215.125 17.3333 214.896 17.2292 214.688 17.3125C214.146 17.3958 213.688 17.5417 213.312 17.75C212.938 17.9167 212.625 18.1042 212.375 18.3125C212.083 18.5625 211.854 18.8542 211.688 19.1875C211.646 19.2708 211.562 19.5208 211.438 19.9375C211.354 20.3542 211.312 20.8333 211.312 21.375C211.312 21.5417 211.312 22.1458 211.312 23.1875C211.312 24.1875 211.292 25.3958 211.25 26.8125C211.25 28.2292 211.229 29.7708 211.188 31.4375C211.188 33.0625 211.167 34.5833 211.125 36C211.125 37.375 211.104 38.5625 211.062 39.5625C211.021 40.5625 210.979 41.125 210.938 41.25C210.854 41.5 210.646 41.8542 210.312 42.3125C209.979 42.7292 209.604 43.125 209.188 43.5C208.771 43.875 208.375 44.1667 208 44.375C207.625 44.5417 207.375 44.5 207.25 44.25C207.125 44.125 207 43.5208 206.875 42.4375C206.75 41.3125 206.604 39.9583 206.438 38.375C206.312 36.75 206.167 35 206 33.125C205.833 31.2083 205.688 29.375 205.562 27.625C205.438 25.875 205.333 24.2917 205.25 22.875C205.167 21.4583 205.104 20.4375 205.062 19.8125C205.021 18.9375 204.979 17.9583 204.938 16.875C204.896 15.75 204.854 14.7083 204.812 13.75C204.812 12.75 204.812 11.8958 204.812 11.1875C204.854 10.4375 204.938 9.97917 205.062 9.8125C205.146 9.64583 205.417 9.60417 205.875 9.6875C206.375 9.77083 206.896 9.9375 207.438 10.1875C208.021 10.3958 208.562 10.6667 209.062 11C209.562 11.2917 209.896 11.5833 210.062 11.875C210.146 12.125 210.25 12.4167 210.375 12.75C210.5 13.0417 210.604 13.5417 210.688 14.25C211.396 13.8333 212.167 13.4583 213 13.125C213.833 12.75 214.646 12.4792 215.438 12.3125C216.271 12.1042 217.062 12.0417 217.812 12.125C218.562 12.1667 219.229 12.375 219.812 12.75C220.188 13.0417 220.562 13.5417 220.938 14.25C221.354 14.9583 221.708 15.7917 222 16.75C222.333 17.7083 222.583 18.7292 222.75 19.8125C222.958 20.8542 223.062 21.8542 223.062 22.8125ZM240.125 16.875C240.167 17 240.167 17.3542 240.125 17.9375C240.083 18.4792 240 19.1042 239.875 19.8125C239.792 20.4792 239.688 21.1042 239.562 21.6875C239.438 22.2292 239.333 22.5625 239.25 22.6875C238.833 22.7292 238.417 22.75 238 22.75C237.583 22.7083 237.188 22.6875 236.812 22.6875H235.5C235.458 25.4375 235.396 28.1667 235.312 30.875C235.229 33.5833 235.125 36.0208 235 38.1875C234.875 40.3125 234.729 42.0417 234.562 43.375C234.438 44.7083 234.312 45.3958 234.188 45.4375C233.896 45.4792 233.562 45.3542 233.188 45.0625C232.812 44.7708 232.438 44.4167 232.062 44C231.729 43.5417 231.417 43.0833 231.125 42.625C230.875 42.125 230.729 41.6875 230.688 41.3125C230.479 38.7708 230.292 36.3542 230.125 34.0625C229.958 31.7292 229.833 29.6667 229.75 27.875C229.583 25.7917 229.479 23.8542 229.438 22.0625C228.979 22.0208 228.521 21.9583 228.062 21.875C227.646 21.7917 227.208 21.7083 226.75 21.625C226.333 21.5417 225.896 21.4583 225.438 21.375C225.354 21.2917 225.25 21.1042 225.125 20.8125C225 20.4792 224.875 20.125 224.75 19.75C224.667 19.375 224.583 19.0208 224.5 18.6875C224.417 18.3125 224.375 18.0417 224.375 17.875C224.375 17.75 224.833 17.625 225.75 17.5C226.708 17.375 227.875 17.2708 229.25 17.1875C229.167 14.9792 229.104 13.0625 229.062 11.4375C229.062 9.77083 229.125 8.64583 229.25 8.0625C229.375 7.27083 229.708 6.52083 230.25 5.8125C230.833 5.0625 231.438 4.41667 232.062 3.875C232.729 3.33333 233.333 2.9375 233.875 2.6875C234.458 2.39583 234.833 2.3125 235 2.4375C235.125 2.52083 235.229 2.95833 235.312 3.75C235.396 4.5 235.458 5.52083 235.5 6.8125C235.542 8.10417 235.562 9.625 235.562 11.375C235.562 13.0833 235.562 14.8958 235.562 16.8125C236.812 16.7292 237.875 16.7083 238.75 16.75C239.625 16.75 240.083 16.7917 240.125 16.875ZM247 30.9375C247.667 30.6875 248.417 30.4167 249.25 30.125C250.125 29.7917 250.958 29.5 251.75 29.25C252.542 28.9583 253.25 28.7083 253.875 28.5C254.5 28.2917 254.958 28.125 255.25 28C255.208 27.5417 255.146 27.0208 255.062 26.4375C255.021 25.8125 254.958 25.2292 254.875 24.6875C254.792 24.1042 254.688 23.6042 254.562 23.1875C254.438 22.7708 254.312 22.5208 254.188 22.4375C253.854 22.3125 253.292 22.2083 252.5 22.125C251.75 22 250.958 22.0208 250.125 22.1875C249.333 22.3542 248.604 22.6667 247.938 23.125C247.271 23.5833 246.896 24.3125 246.812 25.3125C246.729 25.9792 246.708 26.8125 246.75 27.8125C246.792 28.8125 246.875 29.8542 247 30.9375ZM260.562 31.9375C260.521 32.0208 260.021 32.1875 259.062 32.4375C258.104 32.6875 256.958 32.9583 255.625 33.25C254.292 33.5 252.875 33.7708 251.375 34.0625C249.875 34.3125 248.583 34.5208 247.5 34.6875C247.708 36.3542 247.958 37.8542 248.25 39.1875C248.542 40.4792 248.792 41.2917 249 41.625C249.208 41.9167 249.479 42.1875 249.812 42.4375C250.104 42.6458 250.458 42.8542 250.875 43.0625C251.333 43.2292 251.875 43.3542 252.5 43.4375C252.958 43.5625 253.396 43.3958 253.812 42.9375C254.146 42.5208 254.438 41.7917 254.688 40.75C254.979 39.7083 255.125 38.0625 255.125 35.8125C256.417 35.6042 257.417 35.4792 258.125 35.4375C258.875 35.3958 259.417 35.3958 259.75 35.4375C260.167 35.4792 260.417 35.5417 260.5 35.625C260.542 35.75 260.542 36.0625 260.5 36.5625C260.458 37.0625 260.354 37.6875 260.188 38.4375C260.062 39.1458 259.896 39.9375 259.688 40.8125C259.521 41.6458 259.312 42.4583 259.062 43.25C258.812 44 258.542 44.6875 258.25 45.3125C257.958 45.8958 257.646 46.3125 257.312 46.5625C256.312 47.3125 255.062 47.6875 253.562 47.6875C252.062 47.6458 250.583 47.4375 249.125 47.0625C247.667 46.6458 246.354 46.1667 245.188 45.625C244.021 45.0417 243.292 44.5625 243 44.1875C242.792 43.9375 242.604 43.3125 242.438 42.3125C242.271 41.2708 242.125 40.0208 242 38.5625C241.917 37.1042 241.854 35.5 241.812 33.75C241.771 32 241.792 30.2917 241.875 28.625C242 26.9583 242.167 25.4167 242.375 24C242.625 22.5833 242.958 21.4375 243.375 20.5625C244 19.3125 245.021 18.2917 246.438 17.5C247.854 16.7083 249.354 16.1667 250.938 15.875C252.521 15.5833 254.021 15.5417 255.438 15.75C256.896 15.9583 257.979 16.4167 258.688 17.125C259.104 17.5417 259.479 18.375 259.812 19.625C260.146 20.8333 260.354 22.3125 260.438 24.0625C260.438 24.2292 260.458 24.7083 260.5 25.5C260.542 26.2917 260.562 27.1458 260.562 28.0625C260.604 28.9375 260.625 29.7708 260.625 30.5625C260.625 31.3542 260.604 31.8125 260.562 31.9375ZM282.375 22.8125C282.375 23.4792 282.292 24.4375 282.125 25.6875C282 26.9375 281.812 28.3125 281.562 29.8125C281.312 31.2708 281.042 32.7917 280.75 34.375C280.5 35.9167 280.229 37.3333 279.938 38.625C279.688 39.9167 279.458 41 279.25 41.875C279.083 42.75 278.979 43.2292 278.938 43.3125C278.854 43.4375 278.625 43.5208 278.25 43.5625C277.917 43.5625 277.521 43.5208 277.062 43.4375C276.646 43.3542 276.25 43.2292 275.875 43.0625C275.542 42.8958 275.333 42.6875 275.25 42.4375C275.208 42.2708 275.188 41.6875 275.188 40.6875C275.229 39.6875 275.271 38.5 275.312 37.125C275.396 35.7083 275.479 34.2083 275.562 32.625C275.646 31 275.729 29.5 275.812 28.125C275.938 26.7083 276.021 25.5 276.062 24.5C276.146 23.5 276.188 22.8958 276.188 22.6875C276.188 21.9375 276.104 21.2292 275.938 20.5625C275.812 19.8542 275.646 19.25 275.438 18.75C275.229 18.25 274.979 17.875 274.688 17.625C274.438 17.3333 274.208 17.2292 274 17.3125C273.458 17.3958 273 17.5417 272.625 17.75C272.25 17.9167 271.938 18.1042 271.688 18.3125C271.396 18.5625 271.167 18.8542 271 19.1875C270.958 19.2708 270.875 19.5208 270.75 19.9375C270.667 20.3542 270.625 20.8333 270.625 21.375C270.625 21.5417 270.625 22.1458 270.625 23.1875C270.625 24.1875 270.604 25.3958 270.562 26.8125C270.562 28.2292 270.542 29.7708 270.5 31.4375C270.5 33.0625 270.479 34.5833 270.438 36C270.438 37.375 270.417 38.5625 270.375 39.5625C270.333 40.5625 270.292 41.125 270.25 41.25C270.167 41.5 269.958 41.8542 269.625 42.3125C269.292 42.7292 268.917 43.125 268.5 43.5C268.083 43.875 267.688 44.1667 267.312 44.375C266.938 44.5417 266.688 44.5 266.562 44.25C266.438 44.125 266.312 43.5208 266.188 42.4375C266.062 41.3125 265.917 39.9583 265.75 38.375C265.625 36.75 265.479 35 265.312 33.125C265.146 31.2083 265 29.375 264.875 27.625C264.75 25.875 264.646 24.2917 264.562 22.875C264.479 21.4583 264.417 20.4375 264.375 19.8125C264.333 18.9375 264.292 17.9583 264.25 16.875C264.208 15.75 264.167 14.7083 264.125 13.75C264.125 12.75 264.125 11.8958 264.125 11.1875C264.167 10.4375 264.25 9.97917 264.375 9.8125C264.458 9.64583 264.729 9.60417 265.188 9.6875C265.688 9.77083 266.208 9.9375 266.75 10.1875C267.333 10.3958 267.875 10.6667 268.375 11C268.875 11.2917 269.208 11.5833 269.375 11.875C269.458 12.125 269.562 12.4167 269.688 12.75C269.812 13.0417 269.917 13.5417 270 14.25C270.708 13.8333 271.479 13.4583 272.312 13.125C273.146 12.75 273.958 12.4792 274.75 12.3125C275.583 12.1042 276.375 12.0417 277.125 12.125C277.875 12.1667 278.542 12.375 279.125 12.75C279.5 13.0417 279.875 13.5417 280.25 14.25C280.667 14.9583 281.021 15.7917 281.312 16.75C281.646 17.7083 281.896 18.7292 282.062 19.8125C282.271 20.8542 282.375 21.8542 282.375 22.8125ZM303.562 7.625C303.688 8.625 303.729 10.625 303.688 13.625C303.688 14.9167 303.646 16.4792 303.562 18.3125C303.521 20.1458 303.438 22.3542 303.312 24.9375C303.188 27.4792 303.021 30.4375 302.812 33.8125C302.646 37.1458 302.417 40.9375 302.125 45.1875C302.042 45.6042 301.854 46.0625 301.562 46.5625C301.312 47.0625 301.021 47.5208 300.688 47.9375C300.354 48.3542 300 48.7083 299.625 49C299.25 49.25 298.917 49.3333 298.625 49.25C298.542 49.2083 298.438 48.875 298.312 48.25C298.229 47.625 298.146 46.75 298.062 45.625C296.188 46.4583 294.417 47.0208 292.75 47.3125C291.083 47.6042 289.729 47.4167 288.688 46.75C288.271 46.5 287.854 46.0625 287.438 45.4375C287.062 44.7708 286.708 44 286.375 43.125C286.042 42.25 285.771 41.3333 285.562 40.375C285.354 39.375 285.25 38.4375 285.25 37.5625C285.25 36.9375 285.292 36.1042 285.375 35.0625C285.458 34.0208 285.562 32.8958 285.688 31.6875C285.812 30.4375 285.958 29.1875 286.125 27.9375C286.292 26.6458 286.458 25.4583 286.625 24.375C286.792 23.2917 286.938 22.375 287.062 21.625C287.188 20.875 287.292 20.4167 287.375 20.25C287.458 19.75 287.604 19.3333 287.812 19C288.062 18.6667 288.271 18.4167 288.438 18.25C288.854 17.9167 289.458 17.6667 290.25 17.5C291.083 17.3333 291.938 17.2292 292.812 17.1875C293.729 17.1458 294.583 17.1667 295.375 17.25C296.167 17.2917 296.75 17.375 297.125 17.5H297.25C297.167 12.3333 297.167 8.35417 297.25 5.5625C297.333 2.77083 297.5 1.27083 297.75 1.0625C297.917 0.9375 298.292 1.04167 298.875 1.375C299.458 1.70833 300.062 2.1875 300.688 2.8125C301.354 3.4375 301.958 4.1875 302.5 5.0625C303.083 5.89583 303.438 6.75 303.562 7.625ZM294.062 42.625C294.646 42.5 295.167 42.3542 295.625 42.1875C296.125 41.9792 296.542 41.7917 296.875 41.625C297.25 41.4583 297.562 41.25 297.812 41C297.771 39.9167 297.729 38.7083 297.688 37.375C297.646 36 297.604 34.5833 297.562 33.125C297.521 31.6667 297.479 30.1875 297.438 28.6875C297.396 27.1458 297.354 25.6667 297.312 24.25C297.312 23.7917 297.229 23.3958 297.062 23.0625C296.938 22.7292 296.771 22.4583 296.562 22.25C296.438 22.1667 296.188 22.0625 295.812 21.9375C295.438 21.7708 295 21.6458 294.5 21.5625C294.042 21.4375 293.583 21.375 293.125 21.375C292.708 21.375 292.417 21.4583 292.25 21.625C292.167 21.6667 292.083 22.0833 292 22.875C291.958 23.625 291.896 24.5833 291.812 25.75C291.771 26.875 291.708 28.1042 291.625 29.4375C291.583 30.7708 291.542 32.0208 291.5 33.1875C291.458 34.3542 291.417 35.3542 291.375 36.1875C291.333 37.0208 291.312 37.4792 291.312 37.5625C291.312 38.2708 291.396 38.9375 291.562 39.5625C291.771 40.1875 292.021 40.75 292.312 41.25C292.604 41.7083 292.917 42.0833 293.25 42.375C293.583 42.625 293.854 42.7083 294.062 42.625Z" fill="#04ABCE"/>
</svg>
