<svg id="svg" version="1.1" xmlns="http://www.w3.org/2000/svg" xmlns:xlink="http://www.w3.org/1999/xlink" width="400" height="198.99699097291875" viewBox="0, 0, 400,198.99699097291875"><g id="svgg"><path id="path0" d="M156.497 74.958 C 156.349 80.459,156.548 89.608,156.828 90.157 C 157.334 91.148,158.551 91.600,160.846 91.651 C 162.766 91.693,162.833 91.657,162.833 90.589 L 162.833 89.715 161.708 89.607 C 161.090 89.548,160.358 89.431,160.083 89.347 L 159.583 89.195 160.113 89.181 C 160.630 89.167,160.640 89.153,160.488 88.626 C 160.403 88.329,160.333 85.152,160.333 81.566 L 160.333 75.046 159.458 74.941 C 158.254 74.797,156.501 74.807,156.497 74.958 M165.851 75.137 C 165.351 75.328,164.980 75.625,164.684 76.071 L 164.250 76.725 164.202 84.113 L 164.154 91.500 166.160 91.500 L 168.167 91.500 168.167 87.083 L 168.167 82.667 171.667 82.667 L 175.167 82.667 175.167 81.667 L 175.167 80.667 171.667 80.667 L 168.167 80.667 168.167 79.159 C 168.167 76.812,168.465 76.667,173.274 76.667 L 175.500 76.667 175.500 75.750 L 175.500 74.833 171.042 74.846 C 167.293 74.856,166.467 74.902,165.851 75.137 M126.667 76.498 C 125.127 76.703,123.739 77.553,123.556 78.400 C 123.534 78.501,123.397 79.018,123.251 79.549 C 122.944 80.667,123.079 81.796,123.671 83.056 C 124.402 84.611,125.261 84.833,130.535 84.833 C 135.383 84.833,135.748 84.909,135.918 85.946 C 135.975 86.296,136.059 86.783,136.105 87.028 C 136.247 87.794,135.875 88.781,135.287 89.200 C 134.755 89.580,134.697 89.584,128.958 89.633 L 123.167 89.683 123.167 90.841 L 123.167 92.000 129.553 92.000 C 137.688 92.000,138.571 91.790,139.672 89.598 C 140.727 87.497,140.013 84.067,138.500 83.973 C 138.179 83.952,137.467 83.707,136.917 83.426 L 135.917 82.917 131.805 82.833 C 127.664 82.749,127.494 82.725,127.362 82.204 C 127.079 81.081,127.163 79.905,127.561 79.417 L 127.968 78.917 133.658 78.863 L 139.347 78.810 139.299 77.613 L 139.250 76.417 133.417 76.396 C 130.208 76.384,127.171 76.430,126.667 76.498 M144.833 80.321 C 141.898 80.744,141.500 81.431,141.500 86.068 C 141.500 91.481,141.820 91.744,148.258 91.634 L 151.250 91.583 151.250 90.750 L 151.250 89.917 148.380 89.833 C 145.058 89.737,145.034 89.726,144.884 88.276 L 144.787 87.333 147.036 87.333 C 153.759 87.333,155.627 86.776,155.915 84.682 C 156.188 82.692,155.516 81.167,154.366 81.167 C 154.095 81.167,153.434 80.966,152.897 80.720 C 151.843 80.237,147.061 80.001,144.833 80.321 M151.612 82.581 C 152.146 82.954,152.339 83.669,152.076 84.294 C 151.760 85.046,151.043 85.183,147.717 85.129 L 144.917 85.083 144.920 84.152 C 144.925 82.554,145.340 82.358,148.755 82.344 C 150.712 82.336,151.336 82.387,151.612 82.581 M104.833 100.018 C 102.793 100.250,99.897 101.535,99.528 102.374 C 99.497 102.443,99.366 102.500,99.236 102.500 C 99.106 102.500,99.000 102.615,99.000 102.755 C 99.000 102.896,98.885 103.055,98.744 103.109 C 97.856 103.449,96.501 106.330,96.089 108.750 C 95.345 113.131,96.342 116.586,99.200 119.529 C 100.009 120.362,101.896 121.667,102.292 121.667 C 102.383 121.667,102.810 121.822,103.240 122.013 C 104.730 122.672,111.356 122.544,112.057 121.843 C 112.154 121.746,112.365 121.667,112.526 121.667 C 113.429 121.667,115.259 120.148,115.426 119.260 C 115.573 118.478,115.415 118.303,114.608 118.352 C 114.228 118.374,113.753 118.304,113.553 118.196 C 113.021 117.909,112.985 117.924,112.029 118.822 C 110.595 120.168,108.395 120.959,106.638 120.760 C 104.175 120.481,101.955 119.706,102.329 119.255 C 102.452 119.107,102.365 118.908,102.015 118.541 C 100.102 116.540,98.895 113.468,99.061 111.020 C 99.210 108.805,99.887 106.207,100.498 105.502 C 100.683 105.289,100.833 105.070,100.833 105.013 C 100.833 104.811,102.434 103.167,102.631 103.167 C 102.742 103.167,102.833 103.100,102.833 103.020 C 102.833 102.939,103.259 102.664,103.780 102.409 C 105.668 101.485,109.795 101.738,111.314 102.870 C 111.533 103.033,111.780 103.167,111.863 103.167 C 112.184 103.167,114.667 105.563,114.667 105.873 C 114.667 105.961,114.770 106.269,114.897 106.558 C 115.570 108.088,115.978 111.397,115.724 113.252 C 115.565 114.411,114.838 114.923,113.743 114.647 C 113.121 114.491,113.001 114.409,113.184 114.266 C 113.374 114.117,113.408 113.355,113.372 110.125 L 113.327 106.167 111.757 106.167 C 110.893 106.167,110.143 106.237,110.089 106.323 C 110.030 106.420,109.798 106.412,109.485 106.303 C 108.627 106.004,105.219 106.210,104.333 106.615 C 102.071 107.649,101.062 110.583,102.062 113.219 C 102.488 114.342,103.421 115.500,103.899 115.500 C 104.024 115.500,104.219 115.612,104.333 115.750 C 104.447 115.888,104.713 116.000,104.924 116.000 C 105.135 116.000,105.687 116.087,106.149 116.194 C 106.803 116.345,107.531 116.339,109.401 116.168 C 111.658 115.962,111.841 115.967,112.270 116.248 C 113.398 116.987,117.558 116.403,118.550 115.368 C 120.576 113.254,118.765 103.729,116.215 103.090 C 115.971 103.028,115.676 102.852,115.560 102.697 C 115.377 102.452,115.363 102.469,115.451 102.833 L 115.553 103.250 115.087 102.792 C 114.660 102.371,114.534 102.306,114.227 102.348 C 114.168 102.355,114.075 102.299,114.019 102.222 C 113.807 101.930,112.679 101.167,112.461 101.167 C 112.336 101.167,112.148 101.082,112.045 100.978 C 111.195 100.129,107.821 99.680,104.833 100.018 M226.777 105.360 C 226.716 107.575,226.667 110.717,226.667 112.342 C 226.667 116.307,226.875 116.066,223.390 116.138 C 220.496 116.198,218.933 116.076,219.102 115.804 C 219.160 115.709,219.223 114.308,219.240 112.691 C 219.284 108.789,218.923 109.167,222.601 109.167 L 225.667 109.167 225.667 108.333 L 225.667 107.500 221.593 107.500 C 215.777 107.500,215.620 107.621,215.527 112.140 C 215.445 116.105,215.504 116.318,217.022 117.577 C 217.823 118.241,223.206 118.585,226.363 118.175 C 227.034 118.088,227.865 117.983,228.210 117.943 C 228.555 117.903,229.005 117.751,229.210 117.607 C 230.651 116.594,230.662 116.524,230.665 108.316 L 230.667 101.548 229.542 101.442 C 228.923 101.384,228.072 101.335,227.652 101.335 L 226.887 101.333 226.777 105.360 M188.796 104.792 L 188.750 107.250 186.500 107.333 L 184.250 107.417 184.200 108.292 L 184.149 109.167 186.408 109.167 L 188.667 109.167 188.677 109.875 C 188.683 110.265,188.702 112.346,188.719 114.500 L 188.750 118.417 189.833 118.470 C 190.429 118.499,191.310 118.475,191.792 118.416 L 192.667 118.309 192.667 113.738 L 192.667 109.167 195.092 109.167 L 197.517 109.167 197.467 108.292 L 197.417 107.417 195.042 107.370 L 192.667 107.324 192.667 104.829 L 192.667 102.333 190.754 102.333 L 188.842 102.333 188.796 104.792 M171.500 102.774 C 168.063 103.289,167.242 104.109,167.268 106.999 C 167.301 110.700,167.898 111.053,174.333 111.170 C 180.229 111.278,180.333 111.323,180.333 113.746 C 180.333 115.897,180.000 116.000,173.016 116.000 L 167.333 116.000 167.333 117.009 L 167.333 118.018 174.375 117.967 C 182.269 117.911,182.331 117.901,183.371 116.597 C 184.852 114.741,184.252 110.339,182.516 110.330 C 182.167 110.328,181.438 110.084,180.772 109.747 L 179.627 109.167 176.022 109.154 C 173.518 109.145,172.213 109.074,171.750 108.921 C 171.383 108.800,171.180 108.694,171.298 108.684 C 171.457 108.671,171.468 108.584,171.339 108.344 C 171.113 107.921,171.118 106.403,171.347 105.975 C 171.742 105.237,172.322 105.167,177.995 105.167 L 183.333 105.167 183.333 103.917 L 183.333 102.667 177.625 102.689 C 174.485 102.702,171.729 102.740,171.500 102.774 M233.458 107.113 L 232.833 107.187 232.810 110.468 C 232.756 118.116,232.648 117.979,238.917 118.252 C 240.108 118.304,241.571 118.288,242.167 118.215 L 243.250 118.083 243.250 117.167 L 243.250 116.250 239.700 116.150 C 237.367 116.085,236.085 115.985,235.959 115.859 C 235.784 115.684,236.199 115.566,236.708 115.647 C 236.777 115.658,236.833 113.754,236.833 111.417 L 236.833 107.167 236.292 107.165 C 235.994 107.164,235.375 107.136,234.917 107.101 C 234.458 107.066,233.802 107.072,233.458 107.113 M199.058 107.588 C 199.004 107.729,198.996 109.510,199.041 111.547 C 199.185 118.232,199.312 118.328,207.958 118.331 L 213.333 118.333 213.333 112.833 L 213.333 107.333 211.500 107.333 L 209.667 107.333 209.667 111.929 L 209.667 116.525 206.375 116.445 C 204.565 116.401,202.746 116.293,202.333 116.204 L 201.583 116.042 202.228 116.021 C 202.822 116.002,202.862 115.971,202.738 115.625 C 202.664 115.419,202.576 113.469,202.543 111.292 L 202.483 107.333 200.820 107.333 C 199.480 107.333,199.137 107.383,199.058 107.588 M243.612 114.529 C 243.477 123.290,243.985 122.333,239.471 122.333 L 236.167 122.333 236.167 123.225 L 236.167 124.116 238.625 124.217 C 243.738 124.428,246.379 123.967,247.099 122.738 L 247.500 122.054 247.500 114.777 L 247.500 107.500 245.610 107.500 L 243.721 107.500 243.612 114.529 M108.718 107.938 C 109.888 108.099,110.073 108.370,110.328 110.296 C 110.805 113.894,110.101 114.724,106.811 114.449 C 105.496 114.338,105.097 114.178,105.638 113.978 L 106.000 113.844 105.630 113.214 C 105.168 112.426,105.090 110.029,105.500 109.234 C 106.084 108.104,107.059 107.711,108.718 107.938 " stroke="none" fill="#eb3f12" fill-rule="evenodd"></path><path id="path1" d="M100.124 71.677 C 96.272 72.611,95.338 74.883,95.335 83.333 C 95.332 91.381,96.227 93.681,99.750 94.680 C 100.972 95.027,114.801 95.024,116.250 94.677 C 118.274 94.193,119.660 92.832,120.399 90.606 L 120.833 89.295 120.833 83.332 C 120.833 77.736,120.812 77.298,120.481 76.226 C 119.669 73.588,118.303 72.167,116.580 72.167 C 116.255 72.167,115.710 72.036,115.370 71.877 C 114.667 71.549,101.374 71.374,100.124 71.677 M113.364 75.661 C 114.743 76.271,114.659 75.782,114.670 83.234 L 114.681 89.865 114.255 90.260 C 113.432 91.022,112.453 91.167,108.106 91.167 C 104.154 91.167,100.278 90.864,101.750 90.671 L 102.417 90.583 102.000 90.288 L 101.583 89.994 101.583 83.356 C 101.583 75.946,101.504 76.432,102.822 75.745 C 103.908 75.180,112.127 75.114,113.364 75.661 M126.749 98.063 C 126.107 98.166,125.397 98.381,125.171 98.542 C 124.944 98.702,124.678 98.833,124.579 98.833 C 124.178 98.833,123.000 100.258,122.403 101.465 L 121.766 102.750 121.759 109.583 C 121.753 115.651,121.784 116.482,122.032 117.000 C 122.186 117.321,122.422 117.856,122.557 118.190 C 123.050 119.414,124.363 120.564,125.840 121.066 C 127.021 121.467,141.369 121.517,142.626 121.124 C 143.624 120.813,144.520 120.348,144.717 120.042 C 144.790 119.927,144.940 119.831,145.050 119.827 C 145.313 119.819,146.074 118.605,146.634 117.297 L 147.083 116.250 147.083 109.833 C 147.083 102.982,147.095 103.095,146.198 101.167 C 145.625 99.934,143.500 97.951,143.500 98.649 C 143.500 98.902,142.599 98.808,142.083 98.502 C 140.975 97.844,130.072 97.532,126.749 98.063 M138.417 101.916 C 139.534 101.991,140.167 102.142,140.167 102.333 C 140.167 102.404,140.310 102.498,140.484 102.544 C 141.081 102.700,141.194 104.053,141.131 110.290 C 141.067 116.610,141.096 116.401,140.217 117.000 L 139.607 117.417 133.845 117.408 C 129.661 117.402,127.969 117.344,127.667 117.196 C 127.286 117.010,127.313 116.999,127.985 117.067 L 128.720 117.142 128.287 116.741 C 128.009 116.483,127.817 116.085,127.749 115.628 C 127.599 114.613,127.729 103.308,127.895 102.962 C 128.440 101.825,131.896 101.481,138.417 101.916 " stroke="none" fill="#04abce" fill-rule="evenodd"></path><path id="path2" d="M171.116 74.790 L 175.483 74.839 175.549 75.711 L 175.615 76.583 175.599 75.667 L 175.583 74.750 171.167 74.746 L 166.750 74.741 171.116 74.790 M159.706 74.948 L 160.330 75.020 160.376 81.718 L 160.422 88.417 160.420 81.667 L 160.417 74.917 159.750 74.897 L 159.083 74.877 159.706 74.948 M156.410 82.083 C 156.410 85.933,156.432 87.485,156.458 85.530 C 156.485 83.576,156.485 80.426,156.458 78.530 C 156.431 76.635,156.410 78.233,156.410 82.083 M171.633 76.791 C 172.394 76.822,173.594 76.822,174.300 76.790 C 175.006 76.759,174.383 76.734,172.917 76.734 C 171.450 76.734,170.872 76.760,171.633 76.791 M164.076 84.667 C 164.076 88.471,164.098 90.027,164.125 88.125 C 164.152 86.223,164.152 83.110,164.125 81.208 C 164.098 79.306,164.076 80.862,164.076 84.667 M131.469 78.958 C 132.964 78.986,135.364 78.986,136.802 78.958 C 138.240 78.930,137.017 78.908,134.083 78.908 C 131.150 78.908,129.973 78.930,131.469 78.958 M127.645 79.292 C 127.446 79.545,127.449 79.559,127.667 79.393 C 127.804 79.288,128.067 79.166,128.250 79.121 C 128.567 79.043,128.566 79.038,128.229 79.019 C 128.034 79.009,127.771 79.131,127.645 79.292 M144.875 80.282 C 145.035 80.323,145.298 80.323,145.458 80.282 C 145.619 80.240,145.487 80.205,145.167 80.205 C 144.846 80.205,144.715 80.240,144.875 80.282 M151.127 80.285 C 151.334 80.324,151.634 80.323,151.794 80.281 C 151.953 80.239,151.783 80.207,151.417 80.209 C 151.050 80.211,150.920 80.245,151.127 80.285 M152.975 80.737 C 153.465 80.973,154.074 81.167,154.327 81.167 C 154.581 81.167,155.003 81.335,155.266 81.542 L 155.744 81.917 155.414 81.472 C 154.967 80.871,154.108 80.484,153.002 80.387 L 152.083 80.306 152.975 80.737 M169.875 80.624 C 170.860 80.654,172.473 80.654,173.458 80.624 C 174.444 80.595,173.637 80.571,171.667 80.571 C 169.696 80.571,168.890 80.595,169.875 80.624 M127.466 82.517 C 127.638 82.702,128.428 82.752,131.300 82.761 L 134.917 82.773 131.417 82.677 C 129.492 82.625,127.767 82.515,127.583 82.433 C 127.303 82.308,127.284 82.321,127.466 82.517 M146.458 82.451 C 146.665 82.491,147.002 82.491,147.208 82.451 C 147.415 82.411,147.246 82.379,146.833 82.379 C 146.421 82.379,146.252 82.411,146.458 82.451 M150.542 82.448 C 150.702 82.490,150.965 82.490,151.125 82.448 C 151.285 82.406,151.154 82.372,150.833 82.372 C 150.512 82.372,150.381 82.406,150.542 82.448 M169.875 82.791 C 170.860 82.821,172.473 82.821,173.458 82.791 C 174.444 82.762,173.637 82.737,171.667 82.737 C 169.696 82.737,168.890 82.762,169.875 82.791 M135.887 83.003 C 136.146 83.081,136.735 83.342,137.196 83.583 C 137.657 83.824,138.068 83.988,138.109 83.947 C 138.150 83.906,138.461 83.934,138.800 84.009 L 139.417 84.146 138.924 83.781 C 138.270 83.297,136.909 82.855,136.083 82.859 C 135.458 82.862,135.446 82.871,135.887 83.003 M141.403 86.083 C 141.403 87.917,141.428 88.689,141.457 87.801 C 141.487 86.912,141.488 85.412,141.458 84.467 C 141.428 83.523,141.404 84.250,141.403 86.083 M156.039 83.833 C 156.039 84.154,156.073 84.285,156.115 84.125 C 156.157 83.965,156.157 83.702,156.115 83.542 C 156.073 83.381,156.039 83.512,156.039 83.833 M144.900 84.250 L 144.917 85.083 147.833 85.089 L 150.750 85.095 147.884 85.044 L 145.018 84.992 144.950 84.205 L 144.883 83.417 144.900 84.250 M129.366 84.958 C 130.346 84.987,131.996 84.987,133.032 84.958 C 134.069 84.929,133.267 84.904,131.250 84.904 C 129.233 84.904,128.385 84.928,129.366 84.958 M153.167 87.000 L 152.417 87.117 153.083 87.139 C 153.450 87.151,153.862 87.089,154.000 87.000 C 154.137 86.911,154.175 86.849,154.083 86.861 C 153.992 86.873,153.579 86.936,153.167 87.000 M150.628 87.287 C 150.928 87.325,151.378 87.324,151.628 87.286 C 151.878 87.248,151.633 87.217,151.083 87.218 C 150.533 87.219,150.328 87.250,150.628 87.287 M144.879 88.000 C 144.879 88.412,144.911 88.581,144.951 88.375 C 144.991 88.169,144.991 87.831,144.951 87.625 C 144.911 87.419,144.879 87.587,144.879 88.000 M160.550 88.875 C 160.637 89.113,160.557 89.169,160.120 89.182 L 159.583 89.197 160.142 89.357 C 161.000 89.605,161.205 89.492,160.793 89.000 C 160.576 88.740,160.484 88.693,160.550 88.875 M123.070 89.726 C 123.022 89.850,123.010 90.431,123.043 91.018 L 123.102 92.083 123.135 90.877 L 123.167 89.671 128.792 89.625 L 134.417 89.579 128.786 89.539 C 124.176 89.507,123.141 89.541,123.070 89.726 M161.711 89.620 C 161.964 89.658,162.339 89.657,162.544 89.617 C 162.749 89.578,162.542 89.546,162.083 89.548 C 161.625 89.549,161.457 89.581,161.711 89.620 M162.833 90.653 C 162.833 91.152,162.752 91.505,162.625 91.556 C 162.501 91.607,162.534 91.646,162.708 91.654 C 162.952 91.665,163.000 91.517,163.000 90.750 C 163.000 90.246,162.962 89.833,162.917 89.833 C 162.871 89.833,162.833 90.202,162.833 90.653 M138.222 91.178 C 138.124 91.276,137.603 91.497,137.064 91.669 C 136.525 91.841,136.205 91.986,136.354 91.991 C 136.503 91.996,136.937 91.890,137.318 91.755 C 138.038 91.502,138.869 91.000,138.570 91.000 C 138.477 91.000,138.320 91.080,138.222 91.178 M165.377 91.620 C 165.631 91.658,166.006 91.657,166.211 91.617 C 166.416 91.578,166.208 91.546,165.750 91.548 C 165.292 91.549,165.124 91.581,165.377 91.620 M109.167 100.011 C 110.232 100.212,111.704 100.698,112.013 100.951 C 112.158 101.070,112.369 101.167,112.483 101.167 C 112.685 101.167,113.817 101.944,114.019 102.222 C 114.075 102.299,114.168 102.355,114.227 102.348 C 114.534 102.306,114.660 102.371,115.087 102.792 L 115.553 103.250 115.451 102.833 C 115.366 102.481,115.381 102.458,115.551 102.684 C 115.779 102.988,116.500 103.263,116.500 103.047 C 116.500 102.863,115.192 101.769,114.448 101.330 C 113.343 100.677,111.745 100.160,110.337 99.999 C 108.660 99.807,108.112 99.813,109.167 100.011 M226.735 104.000 C 226.735 105.513,226.760 106.131,226.791 105.375 C 226.822 104.619,226.822 103.381,226.791 102.625 C 226.760 101.869,226.735 102.487,226.735 104.000 M229.544 101.453 C 229.797 101.491,230.172 101.490,230.377 101.451 C 230.582 101.411,230.375 101.380,229.917 101.381 C 229.458 101.382,229.291 101.415,229.544 101.453 M106.131 101.956 C 106.615 101.990,107.365 101.990,107.797 101.956 C 108.230 101.921,107.833 101.894,106.917 101.894 C 106.000 101.895,105.646 101.923,106.131 101.956 M190.745 102.289 L 192.658 102.344 192.711 104.839 L 192.763 107.334 192.757 104.792 L 192.750 102.250 190.791 102.242 L 188.833 102.233 190.745 102.289 M188.666 104.867 C 188.621 106.215,188.642 107.259,188.713 107.187 C 188.785 107.116,188.822 106.013,188.796 104.737 L 188.749 102.417 188.666 104.867 M170.960 102.785 C 171.168 102.824,171.468 102.823,171.627 102.781 C 171.786 102.739,171.617 102.707,171.250 102.709 C 170.883 102.711,170.753 102.745,170.960 102.785 M183.366 103.873 L 183.333 105.162 177.875 105.208 L 172.417 105.255 177.880 105.294 C 182.339 105.326,183.360 105.292,183.430 105.108 C 183.478 104.985,183.490 104.366,183.457 103.733 L 183.399 102.583 183.366 103.873 M107.917 106.162 C 108.833 106.223,109.670 106.306,109.775 106.345 C 109.880 106.384,109.993 106.342,110.025 106.250 C 110.061 106.146,109.365 106.077,108.167 106.067 L 106.250 106.050 107.917 106.162 M113.406 110.207 C 113.415 113.573,113.379 114.179,113.167 114.266 C 112.964 114.350,112.980 114.395,113.250 114.506 C 113.851 114.753,114.075 114.708,113.812 114.392 C 113.639 114.183,113.561 113.162,113.490 110.183 L 113.396 106.250 113.406 110.207 M232.741 107.213 C 232.696 107.331,232.681 108.850,232.708 110.588 L 232.758 113.750 232.796 110.468 L 232.833 107.187 233.458 107.121 L 234.083 107.056 233.453 107.028 C 233.072 107.011,232.790 107.084,232.741 107.213 M235.542 107.119 C 235.794 107.158,236.206 107.158,236.458 107.119 C 236.710 107.081,236.504 107.050,236.000 107.050 C 235.496 107.050,235.290 107.081,235.542 107.119 M199.112 107.286 C 199.067 107.358,199.810 107.393,200.762 107.364 L 202.494 107.312 202.543 111.156 L 202.593 115.000 202.588 111.125 L 202.583 107.250 200.888 107.203 C 199.956 107.177,199.157 107.214,199.112 107.286 M209.577 107.372 C 209.532 107.491,209.516 109.612,209.542 112.086 L 209.589 116.583 209.628 111.958 L 209.667 107.333 211.498 107.333 L 213.329 107.333 213.376 112.875 L 213.424 118.417 213.420 112.833 L 213.417 107.250 211.539 107.203 C 210.118 107.167,209.640 107.208,209.577 107.372 M221.700 107.458 L 225.649 107.506 225.711 108.378 L 225.772 109.250 225.803 108.292 L 225.833 107.333 221.792 107.372 L 217.750 107.410 221.700 107.458 M243.577 107.539 C 243.532 107.657,243.516 109.853,243.542 112.419 L 243.589 117.083 243.628 112.292 L 243.667 107.500 245.582 107.500 L 247.496 107.500 247.543 114.458 L 247.589 121.417 247.586 114.417 L 247.583 107.417 245.622 107.370 C 244.135 107.334,243.640 107.375,243.577 107.539 M107.627 107.951 C 107.834 107.991,108.134 107.990,108.294 107.948 C 108.453 107.906,108.283 107.874,107.917 107.875 C 107.550 107.877,107.420 107.911,107.627 107.951 M171.401 108.458 C 171.469 108.578,171.427 108.671,171.302 108.677 C 171.182 108.683,171.263 108.760,171.483 108.847 C 172.001 109.055,172.034 108.992,171.620 108.583 C 171.434 108.400,171.336 108.344,171.401 108.458 M173.875 109.124 C 174.769 109.154,176.231 109.154,177.125 109.124 C 178.019 109.094,177.287 109.070,175.500 109.070 C 173.713 109.070,172.981 109.094,173.875 109.124 M180.772 109.747 C 181.438 110.084,182.167 110.328,182.516 110.330 C 183.151 110.334,183.531 110.629,183.814 111.337 C 183.926 111.618,183.982 111.659,183.989 111.464 C 184.022 110.576,181.815 109.167,180.392 109.167 L 179.627 109.167 180.772 109.747 M185.201 109.290 C 185.816 109.322,186.866 109.322,187.534 109.291 C 188.203 109.259,187.700 109.233,186.417 109.232 C 185.133 109.232,184.586 109.258,185.201 109.290 M192.667 113.739 L 192.667 118.311 192.208 118.381 C 191.782 118.445,191.788 118.452,192.292 118.475 L 192.833 118.500 192.833 113.921 L 192.833 109.342 195.208 109.291 L 197.583 109.240 195.125 109.203 L 192.667 109.167 192.667 113.739 M99.058 111.667 C 99.058 112.446,99.087 112.765,99.122 112.375 C 99.157 111.985,99.157 111.348,99.122 110.958 C 99.087 110.569,99.058 110.888,99.058 111.667 M95.718 111.583 C 95.719 112.133,95.750 112.338,95.787 112.039 C 95.825 111.739,95.824 111.289,95.786 111.039 C 95.748 110.788,95.717 111.033,95.718 111.583 M110.388 111.917 C 110.389 112.558,110.419 112.800,110.455 112.455 C 110.491 112.109,110.490 111.584,110.454 111.288 C 110.417 110.992,110.387 111.275,110.388 111.917 M219.223 112.167 C 219.223 112.854,219.252 113.135,219.288 112.792 C 219.324 112.448,219.324 111.885,219.288 111.542 C 219.252 111.198,219.223 111.479,219.223 112.167 M173.125 111.291 C 174.156 111.320,175.844 111.320,176.875 111.291 C 177.906 111.262,177.063 111.238,175.000 111.238 C 172.938 111.238,172.094 111.262,173.125 111.291 M115.717 112.167 C 115.717 112.671,115.748 112.877,115.786 112.625 C 115.824 112.373,115.824 111.960,115.786 111.708 C 115.748 111.456,115.717 111.662,115.717 112.167 M184.220 113.667 C 184.220 114.263,184.250 114.506,184.287 114.208 C 184.324 113.910,184.324 113.423,184.287 113.125 C 184.250 112.827,184.220 113.071,184.220 113.667 M180.217 113.667 C 180.217 114.171,180.248 114.377,180.286 114.125 C 180.324 113.873,180.324 113.460,180.286 113.208 C 180.248 112.956,180.217 113.162,180.217 113.667 M105.667 113.278 C 105.667 113.363,105.754 113.521,105.862 113.628 C 106.010 113.777,105.964 113.857,105.666 113.967 C 105.152 114.158,105.403 114.291,106.510 114.415 C 107.393 114.513,107.404 114.510,106.903 114.278 C 106.620 114.146,106.226 113.833,106.028 113.580 C 105.829 113.328,105.667 113.192,105.667 113.278 M219.214 114.250 C 219.216 114.708,219.248 114.876,219.286 114.623 C 219.325 114.369,219.324 113.994,219.284 113.789 C 219.244 113.584,219.213 113.792,219.214 114.250 M226.548 114.583 C 226.549 115.042,226.581 115.209,226.620 114.956 C 226.658 114.703,226.657 114.328,226.617 114.123 C 226.578 113.918,226.546 114.125,226.548 114.583 M232.705 114.667 C 232.705 114.987,232.740 115.119,232.782 114.958 C 232.823 114.798,232.823 114.535,232.782 114.375 C 232.740 114.215,232.705 114.346,232.705 114.667 M236.853 115.208 C 236.842 115.460,236.777 115.658,236.708 115.647 C 236.203 115.567,235.784 115.684,235.957 115.857 C 236.170 116.070,243.355 116.336,243.225 116.125 C 243.182 116.056,241.888 116.000,240.349 116.000 C 237.354 116.000,237.164 115.949,236.953 115.083 C 236.892 114.830,236.867 114.860,236.853 115.208 M99.847 115.167 C 99.834 115.436,100.430 116.500,100.594 116.500 C 100.649 116.500,100.547 116.256,100.368 115.958 C 100.188 115.660,100.001 115.304,99.951 115.167 C 99.870 114.944,99.858 114.944,99.847 115.167 M219.167 115.750 C 218.993 115.959,219.017 116.000,219.308 116.000 C 219.549 116.000,219.627 115.923,219.560 115.750 C 219.508 115.612,219.444 115.500,219.419 115.500 C 219.394 115.500,219.281 115.612,219.167 115.750 M202.833 115.835 C 202.833 115.926,202.552 116.009,202.208 116.021 L 201.583 116.042 202.333 116.183 C 202.746 116.261,203.458 116.356,203.917 116.393 C 204.523 116.443,204.581 116.433,204.128 116.356 C 203.786 116.298,203.354 116.119,203.169 115.960 C 202.985 115.800,202.833 115.744,202.833 115.835 M167.236 117.000 L 167.250 118.083 173.125 118.087 L 179.000 118.090 173.175 118.043 L 167.349 117.996 167.286 116.956 L 167.222 115.917 167.236 117.000 M221.200 116.124 C 221.997 116.154,223.347 116.155,224.200 116.124 C 225.052 116.094,224.400 116.069,222.750 116.069 C 221.100 116.069,220.402 116.093,221.200 116.124 M108.958 116.284 C 109.165 116.324,109.502 116.324,109.708 116.284 C 109.915 116.245,109.746 116.212,109.333 116.212 C 108.921 116.212,108.752 116.245,108.958 116.284 M116.125 116.451 C 116.331 116.491,116.669 116.491,116.875 116.451 C 117.081 116.411,116.912 116.379,116.500 116.379 C 116.087 116.379,115.919 116.411,116.125 116.451 M113.792 116.621 C 114.090 116.658,114.577 116.658,114.875 116.621 C 115.173 116.584,114.929 116.553,114.333 116.553 C 113.737 116.553,113.494 116.584,113.792 116.621 M101.167 117.500 C 101.362 117.775,101.560 118.000,101.606 118.000 C 101.652 118.000,101.529 117.775,101.333 117.500 C 101.138 117.225,100.940 117.000,100.894 117.000 C 100.848 117.000,100.971 117.225,101.167 117.500 M113.560 118.212 C 113.879 118.446,115.221 118.390,115.073 118.149 C 115.022 118.067,114.595 118.000,114.125 118.000 C 113.392 118.000,113.311 118.030,113.560 118.212 M225.875 118.282 C 226.035 118.323,226.298 118.323,226.458 118.282 C 226.619 118.240,226.487 118.205,226.167 118.205 C 225.846 118.205,225.715 118.240,225.875 118.282 M236.963 118.289 C 237.355 118.324,237.955 118.324,238.296 118.288 C 238.637 118.252,238.317 118.223,237.583 118.224 C 236.850 118.224,236.571 118.254,236.963 118.289 M241.960 118.285 C 242.168 118.324,242.468 118.323,242.627 118.281 C 242.786 118.239,242.617 118.207,242.250 118.209 C 241.883 118.211,241.753 118.245,241.960 118.285 M205.542 118.458 C 206.802 118.486,208.865 118.486,210.125 118.458 C 211.385 118.430,210.354 118.406,207.833 118.406 C 205.313 118.406,204.281 118.430,205.542 118.458 M102.374 118.919 C 102.442 118.993,102.421 119.145,102.327 119.257 C 101.926 119.741,104.553 120.601,106.833 120.731 C 107.429 120.766,107.692 120.763,107.417 120.725 C 106.240 120.564,104.609 120.137,104.236 119.892 C 104.015 119.747,103.833 119.686,103.833 119.757 C 103.833 119.827,103.702 119.775,103.542 119.640 C 103.183 119.340,102.203 118.734,102.374 118.919 M113.458 121.262 C 112.835 121.600,112.873 121.741,113.500 121.417 C 113.775 121.274,114.000 121.123,114.000 121.079 C 114.000 120.972,113.982 120.978,113.458 121.262 M110.833 122.167 L 110.083 122.283 110.750 122.306 C 111.117 122.318,111.529 122.256,111.667 122.167 C 111.804 122.078,111.842 122.015,111.750 122.028 C 111.658 122.040,111.246 122.103,110.833 122.167 M237.792 122.291 C 238.731 122.321,240.269 122.321,241.208 122.291 C 242.148 122.261,241.379 122.237,239.500 122.237 C 237.621 122.237,236.852 122.261,237.792 122.291 M109.208 122.448 C 109.369 122.490,109.631 122.490,109.792 122.448 C 109.952 122.406,109.821 122.372,109.500 122.372 C 109.179 122.372,109.048 122.406,109.208 122.448 M106.458 122.621 C 106.756 122.658,107.244 122.658,107.542 122.621 C 107.840 122.584,107.596 122.553,107.000 122.553 C 106.404 122.553,106.160 122.584,106.458 122.621 M244.211 124.120 C 244.464 124.158,244.839 124.157,245.044 124.117 C 245.249 124.078,245.042 124.046,244.583 124.048 C 244.125 124.049,243.957 124.081,244.211 124.120 M237.048 124.290 C 237.578 124.323,238.403 124.323,238.881 124.289 C 239.359 124.256,238.925 124.229,237.917 124.229 C 236.908 124.229,236.517 124.257,237.048 124.290 M242.208 124.286 C 242.460 124.324,242.873 124.324,243.125 124.286 C 243.377 124.248,243.171 124.217,242.667 124.217 C 242.162 124.217,241.956 124.248,242.208 124.286 " stroke="none" fill="#fba18a" fill-rule="evenodd"></path><path id="path3" d="M114.792 71.618 C 114.998 71.657,115.335 71.657,115.542 71.618 C 115.748 71.578,115.579 71.545,115.167 71.545 C 114.754 71.545,114.585 71.578,114.792 71.618 M139.389 77.667 C 139.389 78.354,139.419 78.635,139.455 78.292 C 139.491 77.948,139.491 77.385,139.455 77.042 C 139.419 76.698,139.389 76.979,139.389 77.667 M101.575 83.250 C 101.575 86.275,101.597 87.536,101.625 86.052 C 101.652 84.568,101.652 82.093,101.625 80.552 C 101.597 79.011,101.575 80.225,101.575 83.250 M168.223 79.333 C 168.223 80.021,168.252 80.302,168.288 79.958 C 168.324 79.615,168.324 79.052,168.288 78.708 C 168.252 78.365,168.223 78.646,168.223 79.333 M150.461 80.121 C 150.761 80.158,151.211 80.157,151.461 80.119 C 151.712 80.081,151.467 80.051,150.917 80.052 C 150.367 80.053,150.162 80.084,150.461 80.121 M127.209 80.917 C 127.211 81.283,127.245 81.414,127.285 81.206 C 127.324 80.999,127.323 80.699,127.281 80.540 C 127.239 80.380,127.207 80.550,127.209 80.917 M148.458 82.454 C 148.756 82.491,149.244 82.491,149.542 82.454 C 149.840 82.417,149.596 82.387,149.000 82.387 C 148.404 82.387,148.160 82.417,148.458 82.454 M135.294 82.785 C 135.501 82.824,135.801 82.823,135.960 82.781 C 136.120 82.739,135.950 82.707,135.583 82.709 C 135.217 82.711,135.086 82.745,135.294 82.785 M160.558 86.500 C 160.558 87.279,160.587 87.598,160.622 87.208 C 160.657 86.819,160.657 86.181,160.622 85.792 C 160.587 85.402,160.558 85.721,160.558 86.500 M148.825 89.789 L 151.317 89.842 151.381 90.755 L 151.444 91.668 151.430 90.709 L 151.417 89.750 148.875 89.743 L 146.333 89.737 148.825 89.789 M163.039 91.167 C 163.039 91.487,163.073 91.619,163.115 91.458 C 163.157 91.298,163.157 91.035,163.115 90.875 C 163.073 90.715,163.039 90.846,163.039 91.167 M140.627 97.951 C 140.834 97.991,141.134 97.990,141.294 97.948 C 141.453 97.906,141.283 97.874,140.917 97.875 C 140.550 97.877,140.420 97.911,140.627 97.951 M106.632 99.790 C 107.208 99.823,108.108 99.823,108.632 99.790 C 109.155 99.757,108.683 99.730,107.583 99.730 C 106.483 99.731,106.055 99.758,106.632 99.790 M227.798 101.290 C 228.375 101.323,229.275 101.323,229.798 101.290 C 230.322 101.257,229.850 101.230,228.750 101.230 C 227.650 101.231,227.222 101.258,227.798 101.290 M226.562 103.667 C 226.562 104.629,226.589 105.023,226.623 104.542 C 226.657 104.060,226.657 103.273,226.623 102.792 C 226.589 102.310,226.562 102.704,226.562 103.667 M127.741 109.583 C 127.741 112.608,127.764 113.869,127.791 112.386 C 127.819 110.902,127.819 108.427,127.791 106.886 C 127.764 105.344,127.741 106.558,127.741 109.583 M141.074 109.750 C 141.074 112.592,141.097 113.778,141.125 112.385 C 141.152 110.993,141.153 108.668,141.125 107.219 C 141.097 105.769,141.074 106.908,141.074 109.750 M121.573 109.583 C 121.573 112.058,121.596 113.094,121.624 111.885 C 121.653 110.676,121.653 108.651,121.625 107.385 C 121.596 106.119,121.573 107.108,121.573 109.583 M111.131 106.123 C 111.615 106.157,112.365 106.156,112.797 106.122 C 113.230 106.088,112.833 106.060,111.917 106.061 C 111.000 106.061,110.646 106.089,111.131 106.123 M186.380 107.289 C 186.818 107.324,187.493 107.323,187.880 107.288 C 188.267 107.254,187.908 107.225,187.083 107.226 C 186.258 107.226,185.942 107.255,186.380 107.289 M198.867 110.875 C 198.901 114.607,198.961 114.174,199.040 109.625 C 199.064 108.273,199.027 107.166,198.958 107.166 C 198.890 107.167,198.848 108.835,198.867 110.875 M221.800 107.291 C 222.560 107.322,223.760 107.322,224.466 107.290 C 225.172 107.259,224.550 107.234,223.083 107.234 C 221.617 107.234,221.039 107.260,221.800 107.291 M225.881 108.250 C 225.882 108.708,225.915 108.876,225.953 108.623 C 225.991 108.369,225.990 107.994,225.951 107.789 C 225.911 107.584,225.880 107.792,225.881 108.250 M236.892 109.417 C 236.892 110.242,236.920 110.600,236.955 110.213 C 236.990 109.827,236.990 109.152,236.956 108.713 C 236.922 108.275,236.893 108.592,236.892 109.417 M105.209 111.083 C 105.211 111.450,105.245 111.580,105.285 111.373 C 105.324 111.166,105.323 110.866,105.281 110.706 C 105.239 110.547,105.207 110.717,105.209 111.083 M119.550 111.500 C 119.550 112.004,119.581 112.210,119.619 111.958 C 119.658 111.706,119.658 111.294,119.619 111.042 C 119.581 110.790,119.550 110.996,119.550 111.500 M95.548 111.583 C 95.549 112.042,95.581 112.209,95.620 111.956 C 95.658 111.703,95.657 111.328,95.617 111.123 C 95.578 110.918,95.546 111.125,95.548 111.583 M243.250 117.167 C 243.250 117.791,243.306 118.267,243.375 118.224 C 243.444 118.182,243.500 117.706,243.500 117.167 C 243.500 116.627,243.444 116.152,243.375 116.109 C 243.306 116.067,243.250 116.543,243.250 117.167 M106.880 116.456 C 107.318 116.490,107.993 116.490,108.380 116.455 C 108.767 116.420,108.408 116.392,107.583 116.392 C 106.758 116.393,106.442 116.422,106.880 116.456 M206.881 116.457 C 207.412 116.490,208.237 116.490,208.714 116.456 C 209.192 116.422,208.758 116.395,207.750 116.396 C 206.742 116.396,206.351 116.424,206.881 116.457 M130.958 117.455 C 131.348 117.490,131.985 117.490,132.375 117.455 C 132.765 117.420,132.446 117.392,131.667 117.392 C 130.887 117.392,130.569 117.420,130.958 117.455 M136.963 117.456 C 137.355 117.491,137.955 117.490,138.296 117.454 C 138.637 117.419,138.317 117.390,137.583 117.390 C 136.850 117.391,136.571 117.420,136.963 117.456 M172.032 118.291 C 173.013 118.320,174.663 118.320,175.699 118.291 C 176.735 118.262,175.933 118.238,173.917 118.238 C 171.900 118.238,171.052 118.262,172.032 118.291 M140.375 121.448 C 140.535 121.490,140.798 121.490,140.958 121.448 C 141.119 121.406,140.987 121.372,140.667 121.372 C 140.346 121.372,140.215 121.406,140.375 121.448 M239.548 124.457 C 240.078 124.490,240.903 124.490,241.381 124.456 C 241.859 124.422,241.425 124.395,240.417 124.396 C 239.408 124.396,239.017 124.424,239.548 124.457 " stroke="none" fill="#e9f3f3" fill-rule="evenodd"></path></g></svg>